<?xml version="1.0" encoding="UTF-8"?>
<svg xmlns="http://www.w3.org/2000/svg" viewBox="0 0 294.28 331.27">
  <defs>
    <style>
      .cls-1, .cls-2, .cls-3, .cls-4, .cls-5, .cls-6, .cls-7, .cls-8, .cls-9, .cls-10, .cls-11, .cls-12, .cls-13 {
        stroke-width: 0px;
      }

      .cls-1, .cls-3 {
        opacity: .4;
      }

      .cls-1, .cls-13 {
        fill: #fff;
      }

      .cls-2, .cls-5 {
        fill: #407bff;
      }

      .cls-14 {
        opacity: .5;
      }

      .cls-15, .cls-6, .cls-13 {
        opacity: .2;
      }

      .cls-5 {
        opacity: .3;
      }

      .cls-7, .cls-9 {
        fill: #5283b2;
      }

      .cls-8 {
        fill: #5e92dd;
      }

      .cls-9 {
        opacity: .7;
      }

      .cls-10 {
        fill: #ffb573;
      }

      .cls-11 {
        fill: #fafafa;
      }

      .cls-12 {
        fill: #263238;
      }
    </style>
  </defs>
  <g id="Character">
    <g>
      <path class="cls-12" d="m80.44,137.89c.67-2.71,7.99-5.29,14.26-1.32,6.27,3.98,7.94,10.8,5.93,16.3-3.37,9.22,14.21,8.88,18.28,24.43,3.21,12.28.23,29.61-17.7,28.66-27.38-1.44-25.01-26.19-26.22-39.2s-16.13-27.57,5.45-28.89Z"/>
      <path class="cls-10" d="m71.4,172.61c-.12,1.88-.36,3.61-.62,5.39-.27,1.77-.63,3.53-1.05,5.29-.42,1.75-.87,3.51-1.47,5.23-.57,1.73-1.24,3.45-2.03,5.14l-.62,1.26c-.09.19-.25.47-.38.71-.14.25-.29.46-.44.69-.59.88-1.25,1.64-1.91,2.35-1.32,1.43-2.74,2.69-4.18,3.89-2.92,2.36-5.93,4.49-9.17,6.42l-1.86-2.23c1.31-1.18,2.65-2.39,3.94-3.6,1.3-1.2,2.57-2.44,3.78-3.69,1.22-1.24,2.37-2.52,3.38-3.8.5-.64.95-1.29,1.31-1.91.08-.15.17-.31.24-.45.07-.16.13-.26.21-.47l.47-1.13c1.21-3.05,2.07-6.29,2.77-9.57.36-1.64.61-3.3.88-4.96.26-1.64.46-3.36.62-4.94l6.13.36Z"/>
      <path class="cls-2" d="m67.22,165.84c-2.48.58-4.21,10.01-4.21,10.01l9.47,5.96s3.9-11.18,1.99-13.69c-1.98-2.62-3.64-3.13-7.25-2.27Z"/>
      <polygon class="cls-6" points="67.44 167.95 65.54 177.45 69.37 179.85 67.44 167.95"/>
      <path class="cls-10" d="m48.8,205.97l-6.38.94,3.64,3.73s3.76-.8,4.42-3.02l-1.68-1.65Z"/>
      <polygon class="cls-10" points="39.4 207.65 43.04 211.3 46.06 210.64 42.42 206.91 39.4 207.65"/>
      <polygon class="cls-10" points="80.61 324.52 74.61 324.52 74.2 311.64 80.21 311.64 80.61 324.52"/>
      <polygon class="cls-10" points="122.17 308.13 116.6 310.24 109.56 298.99 115.12 296.89 122.17 308.13"/>
      <path class="cls-12" d="m115.56,309.46l5.8-3.19c.21-.12.47-.07.62.1l3.39,3.88c.35.4.21,1.04-.28,1.3-2.04,1.08-3.09,1.51-5.64,2.91-1.57.86-5.26,3.82-7.43,5.01-2.12,1.17-3.56-.73-2.77-1.4,3.53-3.03,4.95-6.04,5.63-7.85.12-.33.37-.6.67-.77Z"/>
      <path class="cls-12" d="m74.4,323.87h6.75c.25,0,.44.16.48.38l.77,4.94c.08.51-.4,1-.96.99-2.35-.04-3.49-.17-6.46-.17-1.83,0-5.6.18-8.13.18s-2.66-2.31-1.61-2.52c4.71-.94,6.56-2.23,8.15-3.46.29-.22.64-.34,1-.34Z"/>
      <g class="cls-15">
        <polygon class="cls-4" points="74.21 311.65 74.41 318.28 80.42 318.28 80.22 311.65 74.21 311.65"/>
        <polygon class="cls-4" points="115.12 296.9 109.56 299 113.19 304.79 118.76 302.69 115.12 296.9"/>
      </g>
      <path class="cls-2" d="m67.22,165.84s-2.86.93,2.87,33.55h24.4c-.41-9.19-.42-14.85,4.33-33.71,0,0-5.11-1.03-10.36-1.26-4.11-.18-7.47-.3-11.08,0-4.76.4-10.16,1.42-10.16,1.42Z"/>
      <path class="cls-6" d="m96.8,173.14c-2.21.51-4.25,2.74-4.01,6.85.15,2.46,1.37,4.33,2.04,5.17.39-3.16,1.05-6.83,2.08-11.52l-.11-.5Z"/>
      <path class="cls-11" d="m78.66,173.44s3.17,1.81,4,4.5c3.44-2.33,8.12-8.83,8.31-12.71.02-.47-.41-.86-.92-.86-1-.01-1.59.06-1.59.06l-9.8,9.02Z"/>
      <path class="cls-11" d="m78.66,173.44s-3.17,1.81-4,4.5c-3.7-2.51-1.65-10.78.47-13.54,1.53-.09,2.25.02,2.25.02l1.28,9.02Z"/>
      <path class="cls-10" d="m87.36,152.87c-.7,3.3-1.4,9.34,1.1,11.54,0,0-3.3,5.85-9.8,9.02-4.94-3.65-1.28-9.02-1.28-9.02,3.98-.88,3.87-3.61,3.18-6.17l6.8-5.37Z"/>
      <path class="cls-6" d="m84.58,155.07l-4.03,3.18c.17.61.3,1.22.34,1.82,1.52-.2,3.91-1.4,4.23-2.93.15-.72-.42-1.73-.55-2.07Z"/>
      <path class="cls-10" d="m93.33,147.58c-1.65,5.3-2.22,7.58-5.82,9.73-5.41,3.24-12.09.21-12.19-5.44-.09-5.09,2.62-12.9,8.82-13.87,6.11-.96,10.83,4.28,9.18,9.58Z"/>
      <path class="cls-12" d="m80.96,138.47c.27,1.79,10.88,7.56,12.9,4.55,2.01-3.01-.88-5.27-5.4-5.84s-7.5,1.29-7.5,1.29Z"/>
      <path class="cls-12" d="m87.87,139.44c-1.3,1.59,1.46,13.01,5.41,11.94,3.95-1.07,3.77-4.73,1.02-8.11-2.75-3.38-6.44-3.83-6.44-3.83Z"/>
      <g>
        <path class="cls-2" d="m70.09,199.39s-4.74,42.82-4.35,59.77c.41,17.63,7.39,57.84,7.39,57.84h8.12s-1.29-39.18-.57-56.5c.78-18.88,7.26-61.11,7.26-61.11h-17.87Z"/>
        <path class="cls-3" d="m70.09,199.39s-4.74,42.82-4.35,59.77c.41,17.63,7.39,57.84,7.39,57.84h8.12s-1.29-39.18-.57-56.5c.78-18.88,7.26-61.11,7.26-61.11h-17.87Z"/>
      </g>
      <polygon class="cls-12" points="81.96 317.27 72.43 317.27 71.73 314.45 82.41 314.11 81.96 317.27"/>
      <path class="cls-6" d="m80.61,210.04c-5.99,11.15-1.2,31.5.92,39.07,1.09-11.37,2.92-25.27,4.35-35.47-.91-5.77-2.5-8.74-5.26-3.6Z"/>
      <g>
        <path class="cls-2" d="m76.53,199.39s5.53,44.51,9.7,58.8c4.96,16.97,25.09,45.92,25.09,45.92l7.59-2.86s-13-32.96-16.79-41.9c-8.09-19.08-1.16-47.51-7.63-59.96h-17.96Z"/>
        <path class="cls-3" d="m76.53,199.39s5.53,44.51,9.7,58.8c4.96,16.97,25.09,45.92,25.09,45.92l7.59-2.86s-13-32.96-16.79-41.9c-8.09-19.08-1.16-47.51-7.63-59.96h-17.96Z"/>
      </g>
      <polygon class="cls-12" points="119.95 301.28 110.54 304.83 108.33 302.48 119.19 297.83 119.95 301.28"/>
      <g>
        <path class="cls-12" d="m26.23,153.01c-13.07,11.57-14.29,31.55-2.72,44.62,11.57,13.07,31.54,14.29,44.61,2.72,13.07-11.57,14.29-31.55,2.72-44.62-11.57-13.07-31.55-14.29-44.62-2.72Zm38.58,43.59c-11,9.74-27.82,8.71-37.55-2.29-9.74-11.01-8.71-27.82,2.29-37.56,11.01-9.74,27.82-8.71,37.56,2.29,9.74,11,8.71,27.82-2.29,37.56Z"/>
        <path class="cls-5" d="m45.69,201.02c-13.44-.82-23.67-12.38-22.85-25.82.82-13.44,12.38-23.67,25.82-22.85,13.44.82,23.67,12.38,22.85,25.82-.82,13.44-12.38,23.67-25.82,22.85Z"/>
        <g class="cls-14">
          <path class="cls-11" d="m48.66,152.35c-.15,0-.3-.02-.46-.02l-25.33,22.42c-.01.15-.02.31-.03.46-.34,5.5,1.18,10.68,4.01,14.94l36.16-32c-3.89-3.32-8.85-5.46-14.35-5.79Z"/>
          <path class="cls-11" d="m65.35,160.43l-36.51,32.31c1.22,1.39,2.59,2.65,4.11,3.73l35.61-31.52c-.89-1.63-1.97-3.15-3.21-4.53Z"/>
        </g>
        <path class="cls-12" d="m72.05,200.59l-4.16,3.68c-.63.56-1.6.5-2.16-.13h0c-.56-.63-.5-1.6.13-2.16l4.16-3.68c.63-.56,1.6-.5,2.16.13h0c.56.63.5,1.6-.13,2.16Z"/>
        <path class="cls-12" d="m70.52,199.91c3.14,2.76,6.14,5.64,9.09,8.56,2.96,2.92,5.85,5.89,8.71,8.89,2.86,3.01,5.67,6.05,8.45,9.13,2.61,3.22,6.17,5.61,6.7,10.67.15,1.41-.87,2.67-2.28,2.81-.29.03-.58,0-.84-.05-4.96-1.14-6.9-4.97-9.78-7.95-2.71-3.14-5.39-6.3-8.03-9.5-2.63-3.2-5.23-6.44-7.77-9.73-2.54-3.29-5.03-6.62-7.39-10.07-.65-.96-.41-2.26.55-2.92.81-.55,1.87-.46,2.57.16Z"/>
      </g>
      <path class="cls-10" d="m93.71,152.87c-.68.95-1.78,1.52-2.78,1.69-1.5.26-2.12-1.02-1.58-2.26.48-1.12,1.84-2.61,3.29-2.3,1.43.3,1.86,1.78,1.07,2.87Z"/>
      <path class="cls-2" d="m113.25,311.57s-.05,0-.07-.01c-.27-.05-.46-.22-.59-.49-.09-.21-.03-.36.04-.45.44-.58,2.61-.51,2.86-.5.06,0,.11.04.13.08.02.05,0,.1-.03.14-.56.5-1.58,1.3-2.33,1.22Zm1.88-1.19c-.87,0-2.03.09-2.26.39-.03.04-.06.1-.01.2.09.19.21.3.38.33.41.08,1.1-.27,1.89-.93Z"/>
      <path class="cls-2" d="m115.26,310.37c-.74-.08-2.06-.55-2.27-1.09-.04-.12-.08-.34.21-.54.18-.13.39-.17.62-.13.86.15,1.75,1.52,1.79,1.58.03.04.03.09,0,.13-.02.04-.07.07-.12.07-.07,0-.14,0-.22-.01Zm-1.54-1.52c-.13-.01-.24.02-.34.09-.14.1-.14.19-.11.25.14.37,1.22.82,1.95.91-.32-.44-.93-1.15-1.45-1.24-.01,0-.03,0-.04,0Z"/>
      <path class="cls-2" d="m72.14,324.84c-.6,0-1.15-.09-1.46-.34-.2-.16-.28-.38-.26-.64.02-.16.1-.28.24-.35.74-.38,3.13.76,3.4.89.05.03.08.08.08.14,0,.06-.05.1-.11.11-.51.09-1.23.2-1.89.2Zm-1.07-1.15c-.11,0-.2.01-.27.05-.06.03-.09.07-.09.14-.02.18.04.32.16.42.36.3,1.35.36,2.69.15-.82-.37-1.92-.76-2.49-.76Z"/>
      <path class="cls-2" d="m74.01,324.65s-.04,0-.06-.01c-.72-.3-2.13-1.5-2.02-2.13.03-.15.14-.33.53-.37.29-.03.56.05.79.23.76.58.89,2.08.9,2.14,0,.05-.02.09-.06.12-.02.02-.05.02-.08.02Zm-1.43-2.25s-.06,0-.09,0c-.26.02-.28.12-.28.15-.07.38.9,1.32,1.63,1.73-.07-.44-.27-1.33-.77-1.71-.15-.11-.31-.17-.49-.17Z"/>
      <g>
        <path class="cls-2" d="m94.86,198.06l.62,2.02c.09.16-.12.32-.4.32h-25.12c-.22,0-.4-.1-.42-.23l-.22-2.02c-.02-.14.18-.26.42-.26h24.71c.18,0,.34.07.4.17Z"/>
        <path class="cls-6" d="m94.86,198.06l.62,2.02c.09.16-.12.32-.4.32h-25.12c-.22,0-.4-.1-.42-.23l-.22-2.02c-.02-.14.18-.26.42-.26h24.71c.18,0,.34.07.4.17Z"/>
      </g>
      <g>
        <g>
          <path class="cls-2" d="m91.46,200.62h.66c.13,0,.23-.06.22-.14l-.31-2.63c0-.08-.12-.14-.26-.14h-.66c-.13,0-.23.06-.22.14l.31,2.63c0,.08.12.14.26.14Z"/>
          <path class="cls-1" d="m91.46,200.62h.66c.13,0,.23-.06.22-.14l-.31-2.63c0-.08-.12-.14-.26-.14h-.66c-.13,0-.23.06-.22.14l.31,2.63c0,.08.12.14.26.14Z"/>
        </g>
        <g>
          <path class="cls-2" d="m71.83,200.62h.66c.13,0,.23-.06.22-.14l-.31-2.63c0-.08-.12-.14-.26-.14h-.66c-.13,0-.23.06-.22.14l.31,2.63c0,.08.12.14.26.14Z"/>
          <path class="cls-1" d="m71.83,200.62h.66c.13,0,.23-.06.22-.14l-.31-2.63c0-.08-.12-.14-.26-.14h-.66c-.13,0-.23.06-.22.14l.31,2.63c0,.08.12.14.26.14Z"/>
        </g>
        <g>
          <path class="cls-2" d="m81.6,200.62h.66c.13,0,.23-.06.22-.14l-.31-2.63c0-.08-.12-.14-.26-.14h-.66c-.13,0-.23.06-.22.14l.31,2.63c0,.08.12.14.26.14Z"/>
          <path class="cls-1" d="m81.6,200.62h.66c.13,0,.23-.06.22-.14l-.31-2.63c0-.08-.12-.14-.26-.14h-.66c-.13,0-.23.06-.22.14l.31,2.63c0,.08.12.14.26.14Z"/>
        </g>
      </g>
      <path class="cls-10" d="m79.83,203.89l-5.93-2.45,1.69,5.43s3.76.79,5.4-.96l-1.16-2.03Z"/>
      <path class="cls-10" d="m101.66,172.38c.27,1.9.49,3.82.73,5.72l.63,5.74c.22,1.91.39,3.83.58,5.74l.26,2.87.07.72c0,.07.03.37.04.58,0,.22-.01.45-.03.67-.1.89-.43,1.68-.83,2.33-.81,1.3-1.82,2.12-2.79,2.83-.99.69-1.98,1.25-2.98,1.75-2.01.97-4.03,1.73-6.07,2.36-2.04.64-4.09,1.18-6.14,1.66-2.07.45-4.11.87-6.24,1.17l-.68-2.74c1.92-.58,3.88-1.19,5.78-1.86,1.92-.65,3.81-1.34,5.64-2.11,1.82-.77,3.62-1.57,5.21-2.52.8-.46,1.55-.95,2.19-1.47.63-.5,1.13-1.06,1.32-1.46.1-.19.12-.33.12-.4-.01-.02,0-.03-.01-.05-.01-.04,0,.02-.02-.14l-.11-.71-.45-2.86c-.28-1.91-.58-3.81-.83-5.72l-.78-5.72c-.23-1.91-.49-3.82-.68-5.73l6.1-.64Z"/>
      <path class="cls-2" d="m98.82,165.68c2.44.69,5.38,8.48,5.38,8.48l-8.56,8.15s-4.39-8.38-3.36-11.3c1.07-3.04,3.75-6.11,6.54-5.32Z"/>
      <polygon class="cls-10" points="69 202.57 70.68 207.05 75.59 206.88 73.9 201.44 69 202.57"/>
    </g>
  </g>
  <g id="List_of_people" data-name="List of people">
    <g>
      <g>
        <g>
          <path class="cls-7" d="m143.43,208.74c1.63-8.97-6.55-16.24-18.28-16.24h85.68c11.73,0,19.91,7.27,18.28,16.24h-85.68Z"/>
          <path class="cls-9" d="m143.43,208.74c1.63-8.97-6.55-16.24-18.28-16.24h85.68c11.73,0,19.91,7.27,18.28,16.24h-85.68Z"/>
        </g>
        <path class="cls-8" d="m125.15,192.49h85.68c-11.73,0-22.56,7.27-24.2,16.24l-19.37,106.29c-1.63,8.97-12.47,16.24-24.2,16.24h-43.21c-11.73,0-19.91-7.27-18.28-16.24l19.37-106.29c1.63-8.97,12.47-16.24,24.2-16.24Z"/>
        <g>
          <path class="cls-7" d="m124.79,315.02c-1.63,8.97,6.55,16.24,18.28,16.24H57.39c-11.73,0-19.91-7.27-18.28-16.24h85.68Z"/>
          <path class="cls-9" d="m124.79,315.02c-1.63,8.97,6.55,16.24,18.28,16.24H57.39c-11.73,0-19.91-7.27-18.28-16.24h85.68Z"/>
        </g>
      </g>
      <g>
        <path class="cls-13" d="m96.37,295.58h46.54c1.36,0,2.62-.85,2.81-1.88h0c.19-1.04-.77-1.88-2.12-1.88h-46.54c-1.36,0-2.62.85-2.81,1.88h0c-.19,1.04.77,1.88,2.12,1.88Z"/>
        <path class="cls-13" d="m99.27,280.47h46.54c1.36,0,2.62-.85,2.81-1.88h0c.19-1.04-.77-1.88-2.12-1.88h-46.54c-1.36,0-2.62.85-2.81,1.88h0c-.19,1.04.77,1.88,2.12,1.88Z"/>
        <path class="cls-13" d="m101.54,265.79h46.54c1.36,0,2.62-.85,2.81-1.88h0c.19-1.04-.77-1.88-2.12-1.88h-46.54c-1.36,0-2.62.85-2.81,1.88h0c-.19,1.04.77,1.88,2.12,1.88Z"/>
        <path class="cls-13" d="m95.09,302.59h34.2c1.36,0,2.62-.85,2.81-1.88h0c.19-1.04-.77-1.88-2.12-1.88h-34.2c-1.36,0-2.62.85-2.81,1.88h0c-.19,1.04.77,1.88,2.12,1.88Z"/>
        <path class="cls-13" d="m103.91,254.01h34.2c1.36,0,2.62-.85,2.81-1.88h0c.19-1.04-.77-1.88-2.12-1.88h-34.2c-1.36,0-2.62.85-2.81,1.88h0c-.19,1.04.77,1.88,2.12,1.88Z"/>
        <path class="cls-13" d="m112.55,209.71h55.48c.7,0,1.35-.44,1.45-.97h0c.1-.54-.4-.97-1.1-.97h-55.48c-.7,0-1.35.44-1.45.97h0c-.1.54.4.97,1.1.97Z"/>
        <path class="cls-13" d="m105.58,238.58h55.48c.7,0,1.35-.44,1.45-.97h0c.1-.54-.4-.97-1.1-.97h-55.48c-.7,0-1.35.44-1.45.97h0c-.1.54.4.97,1.1.97Z"/>
        <path class="cls-13" d="m109.17,218.26h55.48c.7,0,1.35-.44,1.45-.97h0c.1-.54-.4-.97-1.1-.97h-55.48c-.7,0-1.35.44-1.45.97h0c-.1.54.4.97,1.1.97Z"/>
        <path class="cls-13" d="m107.37,226.96h55.48c.7,0,1.35-.44,1.45-.97h0c.1-.54-.4-.97-1.1-.97h-55.48c-.7,0-1.35.44-1.45.97h0c-.1.54.4.97,1.1.97Z"/>
      </g>
    </g>
  </g>
</svg>